<svg width="40" height="40" viewBox="0 0 40 40" fill="none" xmlns="http://www.w3.org/2000/svg">
<path d="M26.6667 13.3335C29.3188 13.3335 31.8624 14.3871 33.7377 16.2624C35.6131 18.1378 36.6667 20.6813 36.6667 23.3335V35.0002H30V23.3335C30 22.4494 29.6488 21.6016 29.0237 20.9765C28.3986 20.3514 27.5507 20.0002 26.6667 20.0002C25.7826 20.0002 24.9348 20.3514 24.3096 20.9765C23.6845 21.6016 23.3333 22.4494 23.3333 23.3335V35.0002H16.6667V23.3335C16.6667 20.6813 17.7202 18.1378 19.5956 16.2624C21.471 14.3871 24.0145 13.3335 26.6667 13.3335V13.3335Z" stroke="#222222" stroke-width="2.5" stroke-linecap="round" stroke-linejoin="round"/>
<path d="M10 15H3.33333V35H10V15Z" stroke="#222222" stroke-width="2.5" stroke-linecap="round" stroke-linejoin="round"/>
<path d="M6.66667 10.0002C8.50762 10.0002 10 8.50778 10 6.66683C10 4.82588 8.50762 3.3335 6.66667 3.3335C4.82572 3.3335 3.33333 4.82588 3.33333 6.66683C3.33333 8.50778 4.82572 10.0002 6.66667 10.0002Z" stroke="#222222" stroke-width="2.5" stroke-linecap="round" stroke-linejoin="round"/>
</svg>
